%TF.GenerationSoftware,KiCad,Pcbnew,5.1.10-88a1d61d58~88~ubuntu20.04.1*%
%TF.CreationDate,2021-06-24T12:36:27-04:00*%
%TF.ProjectId,Li-Ion-BatteryPack,4c692d49-6f6e-42d4-9261-747465727950,rev?*%
%TF.SameCoordinates,Original*%
%TF.FileFunction,Soldermask,Bot*%
%TF.FilePolarity,Negative*%
%FSLAX46Y46*%
G04 Gerber Fmt 4.6, Leading zero omitted, Abs format (unit mm)*
G04 Created by KiCad (PCBNEW 5.1.10-88a1d61d58~88~ubuntu20.04.1) date 2021-06-24 12:36:27*
%MOMM*%
%LPD*%
G01*
G04 APERTURE LIST*
%ADD10C,3.200000*%
%ADD11C,3.000000*%
%ADD12R,3.000000X3.000000*%
%ADD13O,1.700000X1.700000*%
%ADD14R,1.700000X1.700000*%
%ADD15C,6.000000*%
%ADD16C,5.000000*%
%ADD17C,3.500000*%
%ADD18R,3.500000X3.500000*%
%ADD19C,2.200000*%
G04 APERTURE END LIST*
D10*
%TO.C,BT1*%
X145795000Y-64905000D03*
X126490000Y-64905000D03*
X87885000Y-64905000D03*
X107190000Y-64905000D03*
X145795000Y-120515000D03*
X126490000Y-120515000D03*
X87885000Y-120515000D03*
X107190000Y-120515000D03*
D11*
X145790000Y-129160000D03*
D12*
X145790000Y-56260000D03*
D11*
X126490000Y-56260000D03*
D12*
X126490000Y-129160000D03*
D11*
X107190000Y-129160000D03*
D12*
X107190000Y-56260000D03*
D11*
X87890000Y-56260000D03*
D12*
X87890000Y-129160000D03*
%TD*%
D13*
%TO.C,J4*%
X184150000Y-130810000D03*
X186690000Y-130810000D03*
X189230000Y-130810000D03*
X191770000Y-130810000D03*
X194310000Y-130810000D03*
D14*
X196850000Y-130810000D03*
%TD*%
%TO.C,J3*%
G36*
G01*
X186230000Y-57380000D02*
X186230000Y-54380000D01*
G75*
G02*
X187730000Y-52880000I1500000J0D01*
G01*
X190730000Y-52880000D01*
G75*
G02*
X192230000Y-54380000I0J-1500000D01*
G01*
X192230000Y-57380000D01*
G75*
G02*
X190730000Y-58880000I-1500000J0D01*
G01*
X187730000Y-58880000D01*
G75*
G02*
X186230000Y-57380000I0J1500000D01*
G01*
G37*
D15*
X196430000Y-55880000D03*
%TD*%
D16*
%TO.C,TP6*%
X182524400Y-66395600D03*
%TD*%
D17*
%TO.C,BT2*%
X167030400Y-56676400D03*
D18*
X167030400Y-128676400D03*
D10*
X167030400Y-120031400D03*
X167030400Y-64421400D03*
%TD*%
%TO.C,J1*%
G36*
G01*
X71350000Y-117300000D02*
X68350000Y-117300000D01*
G75*
G02*
X66850000Y-115800000I0J1500000D01*
G01*
X66850000Y-112800000D01*
G75*
G02*
X68350000Y-111300000I1500000J0D01*
G01*
X71350000Y-111300000D01*
G75*
G02*
X72850000Y-112800000I0J-1500000D01*
G01*
X72850000Y-115800000D01*
G75*
G02*
X71350000Y-117300000I-1500000J0D01*
G01*
G37*
D15*
X69850000Y-107100000D03*
%TD*%
%TO.C,J2*%
G36*
G01*
X68350000Y-66850000D02*
X71350000Y-66850000D01*
G75*
G02*
X72850000Y-68350000I0J-1500000D01*
G01*
X72850000Y-71350000D01*
G75*
G02*
X71350000Y-72850000I-1500000J0D01*
G01*
X68350000Y-72850000D01*
G75*
G02*
X66850000Y-71350000I0J1500000D01*
G01*
X66850000Y-68350000D01*
G75*
G02*
X68350000Y-66850000I1500000J0D01*
G01*
G37*
X69850000Y-77050000D03*
%TD*%
D19*
%TO.C,TP4*%
X180340000Y-96215200D03*
%TD*%
%TO.C,TP3*%
X180289200Y-91135200D03*
%TD*%
%TO.C,TP2*%
X180238400Y-86106000D03*
%TD*%
%TO.C,TP1*%
X180289200Y-81026000D03*
%TD*%
D16*
%TO.C,TP7*%
X217170000Y-118110000D03*
%TD*%
%TO.C,TP8*%
X209550000Y-118110000D03*
%TD*%
%TO.C,TP9*%
X217170000Y-130810000D03*
%TD*%
%TO.C,TP10*%
X213360000Y-124460000D03*
%TD*%
%TO.C,TP11*%
X209550000Y-130810000D03*
%TD*%
D19*
%TO.C,TP5*%
X180238400Y-101346000D03*
%TD*%
M02*
