M48
; DRILL file {KiCad 5.1.10-88a1d61d58~88~ubuntu20.04.1} date Thu Jun 24 12:40:34 2021
; FORMAT={-:-/ absolute / inch / decimal}
; #@! TF.CreationDate,2021-06-24T12:40:34-04:00
; #@! TF.GenerationSoftware,Kicad,Pcbnew,5.1.10-88a1d61d58~88~ubuntu20.04.1
; #@! TF.FileFunction,Plated,1,2,PTH
FMAT,2
INCH
T1C0.0157
T2C0.0394
T3C0.0433
T4C0.0787
T5C0.0984
T6C0.1181
T7C0.1772
%
G90
G05
T1
X5.462Y-3.678
X6.762Y-3.992
X6.82Y-3.788
X6.88Y-3.588
X6.9355Y-3.39
X7.002Y-3.19
X7.156Y-4.85
T2
X7.25Y-5.15
X7.35Y-5.15
X7.45Y-5.15
X7.55Y-5.15
X7.65Y-5.15
X7.75Y-5.15
T3
X7.096Y-3.39
X7.096Y-3.99
X7.098Y-3.19
X7.098Y-3.588
X7.1Y-3.788
T4
X3.4602Y-2.215
X3.4602Y-5.085
X4.2201Y-2.215
X4.2201Y-5.085
X4.9799Y-2.215
X4.9799Y-5.085
X5.7398Y-2.215
X5.7398Y-5.085
X6.576Y-2.2314
X6.576Y-5.066
T5
X8.25Y-4.65
X8.25Y-5.15
X8.4Y-4.9
X8.55Y-5.15
T6
X2.75Y-2.2
X2.75Y-5.1
X3.6Y-4.5
X3.65Y-4.2
X7.186Y-2.614
X7.2612Y-4.5
X8.55Y-4.65
X8.7Y-2.2
T7
X2.75Y-2.75
X2.75Y-3.0335
X2.75Y-4.2165
X2.75Y-4.5
X7.45Y-2.2
X7.7335Y-2.2
T0
M30
