%TF.GenerationSoftware,KiCad,Pcbnew,5.1.10-88a1d61d58~88~ubuntu20.04.1*%
%TF.CreationDate,2021-06-14T22:44:09-04:00*%
%TF.ProjectId,Li-Ion-BatteryPack,4c692d49-6f6e-42d4-9261-747465727950,rev?*%
%TF.SameCoordinates,Original*%
%TF.FileFunction,Copper,L1,Top*%
%TF.FilePolarity,Positive*%
%FSLAX46Y46*%
G04 Gerber Fmt 4.6, Leading zero omitted, Abs format (unit mm)*
G04 Created by KiCad (PCBNEW 5.1.10-88a1d61d58~88~ubuntu20.04.1) date 2021-06-14 22:44:09*
%MOMM*%
%LPD*%
G01*
G04 APERTURE LIST*
%TA.AperFunction,ComponentPad*%
%ADD10C,3.000000*%
%TD*%
%TA.AperFunction,ComponentPad*%
%ADD11R,3.000000X3.000000*%
%TD*%
%TA.AperFunction,ComponentPad*%
%ADD12O,1.700000X1.700000*%
%TD*%
%TA.AperFunction,ComponentPad*%
%ADD13R,1.700000X1.700000*%
%TD*%
%TA.AperFunction,ComponentPad*%
%ADD14C,6.000000*%
%TD*%
%TA.AperFunction,ComponentPad*%
%ADD15C,5.000000*%
%TD*%
%TA.AperFunction,ComponentPad*%
%ADD16C,3.500000*%
%TD*%
%TA.AperFunction,ComponentPad*%
%ADD17R,3.500000X3.500000*%
%TD*%
%TA.AperFunction,ComponentPad*%
%ADD18C,2.200000*%
%TD*%
%TA.AperFunction,ViaPad*%
%ADD19C,5.000000*%
%TD*%
%TA.AperFunction,ViaPad*%
%ADD20C,0.800000*%
%TD*%
%TA.AperFunction,Conductor*%
%ADD21C,0.250000*%
%TD*%
%TA.AperFunction,Conductor*%
%ADD22C,7.000000*%
%TD*%
%TA.AperFunction,Conductor*%
%ADD23C,5.000000*%
%TD*%
G04 APERTURE END LIST*
D10*
%TO.P,BT1,4*%
%TO.N,Net-(BT1-Pad4)*%
X145790000Y-129160000D03*
D11*
%TO.P,BT1,4+*%
%TO.N,Net-(BT1-Pad3)*%
X145790000Y-56260000D03*
D10*
%TO.P,BT1,3*%
X126490000Y-56260000D03*
D11*
%TO.P,BT1,3+*%
%TO.N,Net-(BT1-Pad2)*%
X126490000Y-129160000D03*
D10*
%TO.P,BT1,2*%
X107190000Y-129160000D03*
D11*
%TO.P,BT1,2+*%
%TO.N,Net-(BT1-Pad1)*%
X107190000Y-56260000D03*
D10*
%TO.P,BT1,1*%
X87890000Y-56260000D03*
D11*
%TO.P,BT1,1+*%
%TO.N,Net-(BT1-Pad1+)*%
X87890000Y-129160000D03*
%TD*%
D12*
%TO.P,J4,6*%
%TO.N,Net-(J4-Pad6)*%
X184150000Y-130810000D03*
%TO.P,J4,5*%
%TO.N,Net-(BT1-Pad1+)*%
X186690000Y-130810000D03*
%TO.P,J4,4*%
%TO.N,Net-(BT1-Pad1)*%
X189230000Y-130810000D03*
%TO.P,J4,3*%
%TO.N,Net-(BT1-Pad2)*%
X191770000Y-130810000D03*
%TO.P,J4,2*%
%TO.N,Net-(BT1-Pad3)*%
X194310000Y-130810000D03*
D13*
%TO.P,J4,1*%
%TO.N,Net-(BT1-Pad4)*%
X196850000Y-130810000D03*
%TD*%
%TO.P,J3,1*%
%TO.N,Net-(BT2-Pad2)*%
%TA.AperFunction,ComponentPad*%
G36*
G01*
X186230000Y-57380000D02*
X186230000Y-54380000D01*
G75*
G02*
X187730000Y-52880000I1500000J0D01*
G01*
X190730000Y-52880000D01*
G75*
G02*
X192230000Y-54380000I0J-1500000D01*
G01*
X192230000Y-57380000D01*
G75*
G02*
X190730000Y-58880000I-1500000J0D01*
G01*
X187730000Y-58880000D01*
G75*
G02*
X186230000Y-57380000I0J1500000D01*
G01*
G37*
%TD.AperFunction*%
D14*
%TO.P,J3,2*%
%TO.N,Net-(BT1-Pad1+)*%
X196430000Y-55880000D03*
%TD*%
D15*
%TO.P,TP6,1*%
%TO.N,Net-(BT2-Pad2)*%
X182524400Y-66395600D03*
%TD*%
D16*
%TO.P,BT2,2*%
%TO.N,Net-(BT2-Pad2)*%
X167030400Y-56676400D03*
D17*
%TO.P,BT2,1*%
%TO.N,Net-(BT1-Pad4)*%
X167030400Y-128676400D03*
%TD*%
%TO.P,J1,1*%
%TO.N,Net-(J1-Pad1)*%
%TA.AperFunction,ComponentPad*%
G36*
G01*
X71350000Y-117300000D02*
X68350000Y-117300000D01*
G75*
G02*
X66850000Y-115800000I0J1500000D01*
G01*
X66850000Y-112800000D01*
G75*
G02*
X68350000Y-111300000I1500000J0D01*
G01*
X71350000Y-111300000D01*
G75*
G02*
X72850000Y-112800000I0J-1500000D01*
G01*
X72850000Y-115800000D01*
G75*
G02*
X71350000Y-117300000I-1500000J0D01*
G01*
G37*
%TD.AperFunction*%
D14*
%TO.P,J1,2*%
%TO.N,Net-(BT1-Pad1+)*%
X69850000Y-107100000D03*
%TD*%
%TO.P,J2,1*%
%TO.N,Net-(J2-Pad1)*%
%TA.AperFunction,ComponentPad*%
G36*
G01*
X68350000Y-66850000D02*
X71350000Y-66850000D01*
G75*
G02*
X72850000Y-68350000I0J-1500000D01*
G01*
X72850000Y-71350000D01*
G75*
G02*
X71350000Y-72850000I-1500000J0D01*
G01*
X68350000Y-72850000D01*
G75*
G02*
X66850000Y-71350000I0J1500000D01*
G01*
X66850000Y-68350000D01*
G75*
G02*
X68350000Y-66850000I1500000J0D01*
G01*
G37*
%TD.AperFunction*%
%TO.P,J2,2*%
%TO.N,Net-(BT1-Pad1+)*%
X69850000Y-77050000D03*
%TD*%
D18*
%TO.P,TP4,1*%
%TO.N,Net-(BT1-Pad1)*%
X180340000Y-96215200D03*
%TD*%
%TO.P,TP3,1*%
%TO.N,Net-(BT1-Pad2)*%
X180289200Y-91135200D03*
%TD*%
%TO.P,TP2,1*%
%TO.N,Net-(BT1-Pad3)*%
X180238400Y-86106000D03*
%TD*%
%TO.P,TP1,1*%
%TO.N,Net-(BT1-Pad4)*%
X180289200Y-81026000D03*
%TD*%
D15*
%TO.P,TP7,1*%
%TO.N,Net-(J1-Pad1)*%
X217170000Y-118110000D03*
%TD*%
%TO.P,TP8,1*%
%TO.N,Net-(TP11-Pad1)*%
X209550000Y-118110000D03*
%TD*%
%TO.P,TP9,1*%
%TO.N,Net-(J1-Pad1)*%
X217170000Y-130810000D03*
%TD*%
%TO.P,TP10,1*%
%TO.N,Net-(J2-Pad1)*%
X213360000Y-124460000D03*
%TD*%
%TO.P,TP11,1*%
%TO.N,Net-(TP11-Pad1)*%
X209550000Y-130810000D03*
%TD*%
D18*
%TO.P,TP5,1*%
%TO.N,Net-(BT1-Pad1+)*%
X180238400Y-101346000D03*
%TD*%
D19*
%TO.N,*%
X69850000Y-55880000D03*
X69850000Y-129540000D03*
X220980000Y-55880000D03*
D20*
%TO.N,Net-(BT1-Pad1+)*%
X171754800Y-101396800D03*
%TO.N,Net-(BT1-Pad1)*%
X173228000Y-96215200D03*
%TO.N,Net-(BT1-Pad2)*%
X138734800Y-93421200D03*
X174752000Y-91135200D03*
%TO.N,Net-(BT1-Pad3)*%
X176160590Y-86106000D03*
%TO.N,Net-(BT1-Pad4)*%
X177850800Y-81026000D03*
X181762400Y-123190000D03*
D19*
%TO.N,Net-(J1-Pad1)*%
X91440000Y-114300000D03*
X184435010Y-114300000D03*
%TO.N,Net-(J2-Pad1)*%
X92710000Y-106680000D03*
%TD*%
D21*
%TO.N,Net-(BT1-Pad1+)*%
X185420000Y-128270000D02*
X186690000Y-129540000D01*
X186690000Y-129540000D02*
X186690000Y-130810000D01*
X176276000Y-128270000D02*
X185420000Y-128270000D01*
X171754800Y-123748800D02*
X176276000Y-128270000D01*
X171754800Y-101396800D02*
X171754800Y-123748800D01*
D22*
%TO.N,Net-(BT1-Pad1)*%
X87890000Y-56260000D02*
X107190000Y-56260000D01*
D21*
X147145200Y-96215200D02*
X173228000Y-96215200D01*
X107190000Y-56260000D02*
X147145200Y-96215200D01*
X189230000Y-128270000D02*
X189230000Y-130810000D01*
X187960000Y-127000000D02*
X189230000Y-128270000D01*
X177698400Y-127000000D02*
X187960000Y-127000000D01*
X173228000Y-122529600D02*
X177698400Y-127000000D01*
X173228000Y-96215200D02*
X173228000Y-122529600D01*
D22*
%TO.N,Net-(BT1-Pad2)*%
X107190000Y-129160000D02*
X126490000Y-129160000D01*
D21*
X191770000Y-127000000D02*
X191770000Y-130810000D01*
X190500000Y-125730000D02*
X191770000Y-127000000D01*
X179095400Y-125730000D02*
X190500000Y-125730000D01*
X174752000Y-121386600D02*
X179095400Y-125730000D01*
X174752000Y-91135200D02*
X174752000Y-121386600D01*
X135890000Y-119760000D02*
X126490000Y-129160000D01*
X135890000Y-96266000D02*
X135890000Y-119760000D01*
X138734800Y-93421200D02*
X135890000Y-96266000D01*
D22*
%TO.N,Net-(BT1-Pad3)*%
X145790000Y-56260000D02*
X126490000Y-56260000D01*
D21*
X145790000Y-56260000D02*
X175636000Y-86106000D01*
X175636000Y-86106000D02*
X176160590Y-86106000D01*
X176160590Y-120331390D02*
X176160590Y-86106000D01*
X180289200Y-124460000D02*
X176160590Y-120331390D01*
X193040000Y-124460000D02*
X180289200Y-124460000D01*
X194310000Y-125730000D02*
X193040000Y-124460000D01*
X194310000Y-130810000D02*
X194310000Y-125730000D01*
%TO.N,Net-(BT1-Pad4)*%
X195580000Y-123190000D02*
X196850000Y-124460000D01*
X185420000Y-123190000D02*
X195580000Y-123190000D01*
X196850000Y-124460000D02*
X196850000Y-130810000D01*
X167430000Y-129160000D02*
X167970000Y-128620000D01*
X185420000Y-123190000D02*
X185420000Y-123190000D01*
X177850800Y-119634000D02*
X181406800Y-123190000D01*
X181406800Y-123190000D02*
X185420000Y-123190000D01*
X177850800Y-81026000D02*
X177850800Y-119634000D01*
D22*
X166546800Y-129160000D02*
X167030400Y-128676400D01*
X145790000Y-129160000D02*
X166546800Y-129160000D01*
D23*
%TO.N,Net-(BT2-Pad2)*%
X178010000Y-55880000D02*
X177270000Y-56620000D01*
D22*
X189230000Y-55880000D02*
X178010000Y-55880000D01*
X177270000Y-56620000D02*
X182524400Y-66395600D01*
X177857600Y-55727600D02*
X178010000Y-55880000D01*
X167979200Y-55727600D02*
X177857600Y-55727600D01*
X167030400Y-56676400D02*
X167979200Y-55727600D01*
%TO.N,Net-(J1-Pad1)*%
X69850000Y-114300000D02*
X91440000Y-114300000D01*
X217170000Y-106680000D02*
X217170000Y-118110000D01*
X192055010Y-106680000D02*
X184435010Y-114300000D01*
X217170000Y-106680000D02*
X192055010Y-106680000D01*
X221437200Y-128270000D02*
X217170000Y-130810000D01*
X221437200Y-120650000D02*
X221437200Y-128270000D01*
X217170000Y-118110000D02*
X221437200Y-120650000D01*
%TO.N,Net-(J2-Pad1)*%
X87630000Y-102870000D02*
X92710000Y-106680000D01*
X87630000Y-73660000D02*
X87630000Y-102870000D01*
X83820000Y-69850000D02*
X87630000Y-73660000D01*
X69850000Y-69850000D02*
X83820000Y-69850000D01*
%TO.N,Net-(TP11-Pad1)*%
X206349600Y-127609600D02*
X209550000Y-130810000D01*
X206349600Y-121310400D02*
X206349600Y-127609600D01*
X209550000Y-118110000D02*
X206349600Y-121310400D01*
%TD*%
M02*
