%TF.GenerationSoftware,KiCad,Pcbnew,5.1.10-88a1d61d58~88~ubuntu20.04.1*%
%TF.CreationDate,2021-06-16T13:20:15-04:00*%
%TF.ProjectId,Li-Ion-BatteryPack,4c692d49-6f6e-42d4-9261-747465727950,rev?*%
%TF.SameCoordinates,Original*%
%TF.FileFunction,Legend,Top*%
%TF.FilePolarity,Positive*%
%FSLAX46Y46*%
G04 Gerber Fmt 4.6, Leading zero omitted, Abs format (unit mm)*
G04 Created by KiCad (PCBNEW 5.1.10-88a1d61d58~88~ubuntu20.04.1) date 2021-06-16 13:20:15*
%MOMM*%
%LPD*%
G01*
G04 APERTURE LIST*
%ADD10C,0.120000*%
%ADD11C,0.150000*%
%ADD12C,0.127000*%
G04 APERTURE END LIST*
D10*
X167640000Y-53340000D02*
X167640000Y-50800000D01*
X166370000Y-132080000D02*
X166370000Y-134620000D01*
X165100000Y-133350000D02*
X167640000Y-133350000D01*
D11*
X178420000Y-61400000D02*
X178420000Y-121400000D01*
X178420000Y-121400000D02*
X220420000Y-121400000D01*
X220420000Y-61400000D02*
X220420000Y-121400000D01*
X178420000Y-61400000D02*
X220420000Y-61400000D01*
D12*
%TO.C,BT1*%
X87630000Y-52070000D02*
X87630000Y-50070000D01*
X87630000Y-134710000D02*
X87630000Y-132710000D01*
X86630000Y-133710000D02*
X88630000Y-133710000D01*
X156260000Y-131700000D02*
X77420000Y-131700000D01*
X156260000Y-53720000D02*
X156260000Y-131700000D01*
X77420000Y-53720000D02*
X156260000Y-53720000D01*
X77420000Y-131700000D02*
X77420000Y-53720000D01*
X125730000Y-52070000D02*
X125730000Y-50070000D01*
X106680000Y-134890000D02*
X106680000Y-132890000D01*
X144780000Y-134890000D02*
X144780000Y-132890000D01*
X124730000Y-133710000D02*
X126730000Y-133710000D01*
X125730000Y-134710000D02*
X125730000Y-132710000D01*
X144780000Y-52160000D02*
X144780000Y-50160000D01*
X143780000Y-51160000D02*
X145780000Y-51160000D01*
X106680000Y-52160000D02*
X106680000Y-50160000D01*
X105680000Y-51160000D02*
X107680000Y-51160000D01*
D10*
%TO.C,J4*%
X182820000Y-129480000D02*
X182820000Y-132140000D01*
X195580000Y-129480000D02*
X182820000Y-129480000D01*
X195580000Y-132140000D02*
X182820000Y-132140000D01*
X195580000Y-129480000D02*
X195580000Y-132140000D01*
X196850000Y-129480000D02*
X198180000Y-129480000D01*
X198180000Y-129480000D02*
X198180000Y-130810000D01*
%TO.C,J3*%
X200680000Y-51730000D02*
X187830000Y-51730000D01*
X184980000Y-54280000D02*
X184980000Y-57430000D01*
X187830000Y-60030000D02*
X200680000Y-60030000D01*
X200680000Y-60030000D02*
X200680000Y-51730000D01*
X187830000Y-51730000D02*
X184980000Y-54280000D01*
X184980000Y-57430000D02*
X187830000Y-60030000D01*
%TO.C,TP6*%
X180674400Y-64895600D02*
X180674400Y-67895600D01*
X184374400Y-67895600D02*
X180674400Y-67895600D01*
X184374400Y-64895600D02*
X184374400Y-67895600D01*
X180674400Y-64895600D02*
X184374400Y-64895600D01*
%TO.C,BT2*%
X156980400Y-131676400D02*
X156980400Y-53676400D01*
X156980400Y-53676400D02*
X177080400Y-53676400D01*
X177080400Y-53676400D02*
X177080400Y-131676400D01*
X177080400Y-131676400D02*
X156980400Y-131676400D01*
%TO.C,J1*%
X71400000Y-118550000D02*
X74000000Y-115700000D01*
X65700000Y-115700000D02*
X68250000Y-118550000D01*
X74000000Y-102850000D02*
X65700000Y-102850000D01*
X74000000Y-115700000D02*
X74000000Y-102850000D01*
X68250000Y-118550000D02*
X71400000Y-118550000D01*
X65700000Y-102850000D02*
X65700000Y-115700000D01*
%TO.C,J2*%
X74000000Y-81300000D02*
X74000000Y-68450000D01*
X71450000Y-65600000D02*
X68300000Y-65600000D01*
X65700000Y-68450000D02*
X65700000Y-81300000D01*
X65700000Y-81300000D02*
X74000000Y-81300000D01*
X74000000Y-68450000D02*
X71450000Y-65600000D01*
X68300000Y-65600000D02*
X65700000Y-68450000D01*
%TO.C,TP4*%
X179040000Y-97515200D02*
X181640000Y-97515200D01*
X181640000Y-94915200D02*
X181640000Y-97515200D01*
X179040000Y-94915200D02*
X181640000Y-94915200D01*
X179040000Y-97515200D02*
X179040000Y-94915200D01*
%TO.C,TP3*%
X178989200Y-92435200D02*
X178989200Y-89835200D01*
X178989200Y-89835200D02*
X181589200Y-89835200D01*
X181589200Y-89835200D02*
X181589200Y-92435200D01*
X178989200Y-92435200D02*
X181589200Y-92435200D01*
%TO.C,TP2*%
X178938400Y-87406000D02*
X181538400Y-87406000D01*
X181538400Y-84806000D02*
X181538400Y-87406000D01*
X178938400Y-84806000D02*
X181538400Y-84806000D01*
X178938400Y-87406000D02*
X178938400Y-84806000D01*
%TO.C,TP1*%
X178989200Y-82326000D02*
X178989200Y-79726000D01*
X178989200Y-79726000D02*
X181589200Y-79726000D01*
X181589200Y-79726000D02*
X181589200Y-82326000D01*
X178989200Y-82326000D02*
X181589200Y-82326000D01*
%TO.C,TP7*%
X215670000Y-119960000D02*
X215670000Y-116260000D01*
X215670000Y-116260000D02*
X218670000Y-116260000D01*
X218670000Y-116260000D02*
X218670000Y-119960000D01*
X215670000Y-119960000D02*
X218670000Y-119960000D01*
%TO.C,TP8*%
X208050000Y-119960000D02*
X211050000Y-119960000D01*
X211050000Y-116260000D02*
X211050000Y-119960000D01*
X208050000Y-116260000D02*
X211050000Y-116260000D01*
X208050000Y-119960000D02*
X208050000Y-116260000D01*
%TO.C,TP9*%
X215670000Y-132660000D02*
X215670000Y-128960000D01*
X215670000Y-128960000D02*
X218670000Y-128960000D01*
X218670000Y-128960000D02*
X218670000Y-132660000D01*
X215670000Y-132660000D02*
X218670000Y-132660000D01*
%TO.C,TP10*%
X211860000Y-126310000D02*
X214860000Y-126310000D01*
X214860000Y-122610000D02*
X214860000Y-126310000D01*
X211860000Y-122610000D02*
X214860000Y-122610000D01*
X211860000Y-126310000D02*
X211860000Y-122610000D01*
%TO.C,TP11*%
X208050000Y-132660000D02*
X208050000Y-128960000D01*
X208050000Y-128960000D02*
X211050000Y-128960000D01*
X211050000Y-128960000D02*
X211050000Y-132660000D01*
X208050000Y-132660000D02*
X211050000Y-132660000D01*
%TO.C,TP5*%
X178938400Y-102646000D02*
X181538400Y-102646000D01*
X181538400Y-100046000D02*
X181538400Y-102646000D01*
X178938400Y-100046000D02*
X181538400Y-100046000D01*
X178938400Y-102646000D02*
X178938400Y-100046000D01*
%TO.C,BT1*%
D11*
X76353571Y-129320714D02*
X76401190Y-129177857D01*
X76448809Y-129130238D01*
X76544047Y-129082619D01*
X76686904Y-129082619D01*
X76782142Y-129130238D01*
X76829761Y-129177857D01*
X76877380Y-129273095D01*
X76877380Y-129654047D01*
X75877380Y-129654047D01*
X75877380Y-129320714D01*
X75925000Y-129225476D01*
X75972619Y-129177857D01*
X76067857Y-129130238D01*
X76163095Y-129130238D01*
X76258333Y-129177857D01*
X76305952Y-129225476D01*
X76353571Y-129320714D01*
X76353571Y-129654047D01*
X75877380Y-128796904D02*
X75877380Y-128225476D01*
X76877380Y-128511190D02*
X75877380Y-128511190D01*
X76877380Y-127368333D02*
X76877380Y-127939761D01*
X76877380Y-127654047D02*
X75877380Y-127654047D01*
X76020238Y-127749285D01*
X76115476Y-127844523D01*
X76163095Y-127939761D01*
%TO.C,J4*%
X200326666Y-130262380D02*
X200326666Y-130976666D01*
X200279047Y-131119523D01*
X200183809Y-131214761D01*
X200040952Y-131262380D01*
X199945714Y-131262380D01*
X201231428Y-130595714D02*
X201231428Y-131262380D01*
X200993333Y-130214761D02*
X200755238Y-130929047D01*
X201374285Y-130929047D01*
X186619047Y-133278571D02*
X186761904Y-133326190D01*
X186809523Y-133373809D01*
X186857142Y-133469047D01*
X186857142Y-133611904D01*
X186809523Y-133707142D01*
X186761904Y-133754761D01*
X186666666Y-133802380D01*
X186285714Y-133802380D01*
X186285714Y-132802380D01*
X186619047Y-132802380D01*
X186714285Y-132850000D01*
X186761904Y-132897619D01*
X186809523Y-132992857D01*
X186809523Y-133088095D01*
X186761904Y-133183333D01*
X186714285Y-133230952D01*
X186619047Y-133278571D01*
X186285714Y-133278571D01*
X187285714Y-133802380D02*
X187285714Y-132802380D01*
X187619047Y-133516666D01*
X187952380Y-132802380D01*
X187952380Y-133802380D01*
X188380952Y-133754761D02*
X188523809Y-133802380D01*
X188761904Y-133802380D01*
X188857142Y-133754761D01*
X188904761Y-133707142D01*
X188952380Y-133611904D01*
X188952380Y-133516666D01*
X188904761Y-133421428D01*
X188857142Y-133373809D01*
X188761904Y-133326190D01*
X188571428Y-133278571D01*
X188476190Y-133230952D01*
X188428571Y-133183333D01*
X188380952Y-133088095D01*
X188380952Y-132992857D01*
X188428571Y-132897619D01*
X188476190Y-132850000D01*
X188571428Y-132802380D01*
X188809523Y-132802380D01*
X188952380Y-132850000D01*
X190095238Y-133754761D02*
X190238095Y-133802380D01*
X190476190Y-133802380D01*
X190571428Y-133754761D01*
X190619047Y-133707142D01*
X190666666Y-133611904D01*
X190666666Y-133516666D01*
X190619047Y-133421428D01*
X190571428Y-133373809D01*
X190476190Y-133326190D01*
X190285714Y-133278571D01*
X190190476Y-133230952D01*
X190142857Y-133183333D01*
X190095238Y-133088095D01*
X190095238Y-132992857D01*
X190142857Y-132897619D01*
X190190476Y-132850000D01*
X190285714Y-132802380D01*
X190523809Y-132802380D01*
X190666666Y-132850000D01*
X191476190Y-133754761D02*
X191380952Y-133802380D01*
X191190476Y-133802380D01*
X191095238Y-133754761D01*
X191047619Y-133659523D01*
X191047619Y-133278571D01*
X191095238Y-133183333D01*
X191190476Y-133135714D01*
X191380952Y-133135714D01*
X191476190Y-133183333D01*
X191523809Y-133278571D01*
X191523809Y-133373809D01*
X191047619Y-133469047D01*
X191952380Y-133135714D02*
X191952380Y-133802380D01*
X191952380Y-133230952D02*
X192000000Y-133183333D01*
X192095238Y-133135714D01*
X192238095Y-133135714D01*
X192333333Y-133183333D01*
X192380952Y-133278571D01*
X192380952Y-133802380D01*
X192809523Y-133754761D02*
X192904761Y-133802380D01*
X193095238Y-133802380D01*
X193190476Y-133754761D01*
X193238095Y-133659523D01*
X193238095Y-133611904D01*
X193190476Y-133516666D01*
X193095238Y-133469047D01*
X192952380Y-133469047D01*
X192857142Y-133421428D01*
X192809523Y-133326190D01*
X192809523Y-133278571D01*
X192857142Y-133183333D01*
X192952380Y-133135714D01*
X193095238Y-133135714D01*
X193190476Y-133183333D01*
X193809523Y-133802380D02*
X193714285Y-133754761D01*
X193666666Y-133707142D01*
X193619047Y-133611904D01*
X193619047Y-133326190D01*
X193666666Y-133230952D01*
X193714285Y-133183333D01*
X193809523Y-133135714D01*
X193952380Y-133135714D01*
X194047619Y-133183333D01*
X194095238Y-133230952D01*
X194142857Y-133326190D01*
X194142857Y-133611904D01*
X194095238Y-133707142D01*
X194047619Y-133754761D01*
X193952380Y-133802380D01*
X193809523Y-133802380D01*
X194571428Y-133802380D02*
X194571428Y-133135714D01*
X194571428Y-133326190D02*
X194619047Y-133230952D01*
X194666666Y-133183333D01*
X194761904Y-133135714D01*
X194857142Y-133135714D01*
%TO.C,J3*%
X184426266Y-51623980D02*
X184426266Y-52338266D01*
X184378647Y-52481123D01*
X184283409Y-52576361D01*
X184140552Y-52623980D01*
X184045314Y-52623980D01*
X184807219Y-51623980D02*
X185426266Y-51623980D01*
X185092933Y-52004933D01*
X185235790Y-52004933D01*
X185331028Y-52052552D01*
X185378647Y-52100171D01*
X185426266Y-52195409D01*
X185426266Y-52433504D01*
X185378647Y-52528742D01*
X185331028Y-52576361D01*
X185235790Y-52623980D01*
X184950076Y-52623980D01*
X184854838Y-52576361D01*
X184807219Y-52528742D01*
X190755923Y-51099980D02*
X190755923Y-50099980D01*
X191136876Y-50099980D01*
X191232114Y-50147600D01*
X191279733Y-50195219D01*
X191327352Y-50290457D01*
X191327352Y-50433314D01*
X191279733Y-50528552D01*
X191232114Y-50576171D01*
X191136876Y-50623790D01*
X190755923Y-50623790D01*
X192184495Y-51099980D02*
X192184495Y-50576171D01*
X192136876Y-50480933D01*
X192041638Y-50433314D01*
X191851161Y-50433314D01*
X191755923Y-50480933D01*
X192184495Y-51052361D02*
X192089257Y-51099980D01*
X191851161Y-51099980D01*
X191755923Y-51052361D01*
X191708304Y-50957123D01*
X191708304Y-50861885D01*
X191755923Y-50766647D01*
X191851161Y-50719028D01*
X192089257Y-50719028D01*
X192184495Y-50671409D01*
X192660685Y-51099980D02*
X192660685Y-50433314D01*
X192660685Y-50623790D02*
X192708304Y-50528552D01*
X192755923Y-50480933D01*
X192851161Y-50433314D01*
X192946400Y-50433314D01*
X193708304Y-51099980D02*
X193708304Y-50576171D01*
X193660685Y-50480933D01*
X193565447Y-50433314D01*
X193374971Y-50433314D01*
X193279733Y-50480933D01*
X193708304Y-51052361D02*
X193613066Y-51099980D01*
X193374971Y-51099980D01*
X193279733Y-51052361D01*
X193232114Y-50957123D01*
X193232114Y-50861885D01*
X193279733Y-50766647D01*
X193374971Y-50719028D01*
X193613066Y-50719028D01*
X193708304Y-50671409D01*
X194327352Y-51099980D02*
X194232114Y-51052361D01*
X194184495Y-50957123D01*
X194184495Y-50099980D01*
X194851161Y-51099980D02*
X194755923Y-51052361D01*
X194708304Y-50957123D01*
X194708304Y-50099980D01*
X195613066Y-51052361D02*
X195517828Y-51099980D01*
X195327352Y-51099980D01*
X195232114Y-51052361D01*
X195184495Y-50957123D01*
X195184495Y-50576171D01*
X195232114Y-50480933D01*
X195327352Y-50433314D01*
X195517828Y-50433314D01*
X195613066Y-50480933D01*
X195660685Y-50576171D01*
X195660685Y-50671409D01*
X195184495Y-50766647D01*
X196232114Y-51099980D02*
X196136876Y-51052361D01*
X196089257Y-50957123D01*
X196089257Y-50099980D01*
%TO.C,TP6*%
X185227980Y-70540571D02*
X185370838Y-70588190D01*
X185418457Y-70635809D01*
X185466076Y-70731047D01*
X185466076Y-70873904D01*
X185418457Y-70969142D01*
X185370838Y-71016761D01*
X185275600Y-71064380D01*
X184894647Y-71064380D01*
X184894647Y-70064380D01*
X185227980Y-70064380D01*
X185323219Y-70112000D01*
X185370838Y-70159619D01*
X185418457Y-70254857D01*
X185418457Y-70350095D01*
X185370838Y-70445333D01*
X185323219Y-70492952D01*
X185227980Y-70540571D01*
X184894647Y-70540571D01*
X185894647Y-70683428D02*
X186656552Y-70683428D01*
%TO.C,BT2*%
X178058971Y-129112114D02*
X178106590Y-128969257D01*
X178154209Y-128921638D01*
X178249447Y-128874019D01*
X178392304Y-128874019D01*
X178487542Y-128921638D01*
X178535161Y-128969257D01*
X178582780Y-129064495D01*
X178582780Y-129445447D01*
X177582780Y-129445447D01*
X177582780Y-129112114D01*
X177630400Y-129016876D01*
X177678019Y-128969257D01*
X177773257Y-128921638D01*
X177868495Y-128921638D01*
X177963733Y-128969257D01*
X178011352Y-129016876D01*
X178058971Y-129112114D01*
X178058971Y-129445447D01*
X177582780Y-128588304D02*
X177582780Y-128016876D01*
X178582780Y-128302590D02*
X177582780Y-128302590D01*
X177678019Y-127731161D02*
X177630400Y-127683542D01*
X177582780Y-127588304D01*
X177582780Y-127350209D01*
X177630400Y-127254971D01*
X177678019Y-127207352D01*
X177773257Y-127159733D01*
X177868495Y-127159733D01*
X178011352Y-127207352D01*
X178582780Y-127778780D01*
X178582780Y-127159733D01*
%TO.C,J1*%
X65706666Y-117562380D02*
X65706666Y-118276666D01*
X65659047Y-118419523D01*
X65563809Y-118514761D01*
X65420952Y-118562380D01*
X65325714Y-118562380D01*
X66706666Y-118562380D02*
X66135238Y-118562380D01*
X66420952Y-118562380D02*
X66420952Y-117562380D01*
X66325714Y-117705238D01*
X66230476Y-117800476D01*
X66135238Y-117848095D01*
X65127142Y-112585238D02*
X65174761Y-112632857D01*
X65222380Y-112775714D01*
X65222380Y-112870952D01*
X65174761Y-113013809D01*
X65079523Y-113109047D01*
X64984285Y-113156666D01*
X64793809Y-113204285D01*
X64650952Y-113204285D01*
X64460476Y-113156666D01*
X64365238Y-113109047D01*
X64270000Y-113013809D01*
X64222380Y-112870952D01*
X64222380Y-112775714D01*
X64270000Y-112632857D01*
X64317619Y-112585238D01*
X65222380Y-112156666D02*
X64222380Y-112156666D01*
X65222380Y-111728095D02*
X64698571Y-111728095D01*
X64603333Y-111775714D01*
X64555714Y-111870952D01*
X64555714Y-112013809D01*
X64603333Y-112109047D01*
X64650952Y-112156666D01*
X65222380Y-110823333D02*
X64698571Y-110823333D01*
X64603333Y-110870952D01*
X64555714Y-110966190D01*
X64555714Y-111156666D01*
X64603333Y-111251904D01*
X65174761Y-110823333D02*
X65222380Y-110918571D01*
X65222380Y-111156666D01*
X65174761Y-111251904D01*
X65079523Y-111299523D01*
X64984285Y-111299523D01*
X64889047Y-111251904D01*
X64841428Y-111156666D01*
X64841428Y-110918571D01*
X64793809Y-110823333D01*
X65222380Y-110347142D02*
X64555714Y-110347142D01*
X64746190Y-110347142D02*
X64650952Y-110299523D01*
X64603333Y-110251904D01*
X64555714Y-110156666D01*
X64555714Y-110061428D01*
X64555714Y-109299523D02*
X65365238Y-109299523D01*
X65460476Y-109347142D01*
X65508095Y-109394761D01*
X65555714Y-109490000D01*
X65555714Y-109632857D01*
X65508095Y-109728095D01*
X65174761Y-109299523D02*
X65222380Y-109394761D01*
X65222380Y-109585238D01*
X65174761Y-109680476D01*
X65127142Y-109728095D01*
X65031904Y-109775714D01*
X64746190Y-109775714D01*
X64650952Y-109728095D01*
X64603333Y-109680476D01*
X64555714Y-109585238D01*
X64555714Y-109394761D01*
X64603333Y-109299523D01*
X65174761Y-108442380D02*
X65222380Y-108537619D01*
X65222380Y-108728095D01*
X65174761Y-108823333D01*
X65079523Y-108870952D01*
X64698571Y-108870952D01*
X64603333Y-108823333D01*
X64555714Y-108728095D01*
X64555714Y-108537619D01*
X64603333Y-108442380D01*
X64698571Y-108394761D01*
X64793809Y-108394761D01*
X64889047Y-108870952D01*
X65222380Y-107966190D02*
X64555714Y-107966190D01*
X64746190Y-107966190D02*
X64650952Y-107918571D01*
X64603333Y-107870952D01*
X64555714Y-107775714D01*
X64555714Y-107680476D01*
%TO.C,J2*%
X65706666Y-65492380D02*
X65706666Y-66206666D01*
X65659047Y-66349523D01*
X65563809Y-66444761D01*
X65420952Y-66492380D01*
X65325714Y-66492380D01*
X66135238Y-65587619D02*
X66182857Y-65540000D01*
X66278095Y-65492380D01*
X66516190Y-65492380D01*
X66611428Y-65540000D01*
X66659047Y-65587619D01*
X66706666Y-65682857D01*
X66706666Y-65778095D01*
X66659047Y-65920952D01*
X66087619Y-66492380D01*
X66706666Y-66492380D01*
X65222380Y-74707619D02*
X65222380Y-75183809D01*
X64222380Y-75183809D01*
X65222380Y-74231428D02*
X65174761Y-74326666D01*
X65127142Y-74374285D01*
X65031904Y-74421904D01*
X64746190Y-74421904D01*
X64650952Y-74374285D01*
X64603333Y-74326666D01*
X64555714Y-74231428D01*
X64555714Y-74088571D01*
X64603333Y-73993333D01*
X64650952Y-73945714D01*
X64746190Y-73898095D01*
X65031904Y-73898095D01*
X65127142Y-73945714D01*
X65174761Y-73993333D01*
X65222380Y-74088571D01*
X65222380Y-74231428D01*
X65222380Y-73040952D02*
X64698571Y-73040952D01*
X64603333Y-73088571D01*
X64555714Y-73183809D01*
X64555714Y-73374285D01*
X64603333Y-73469523D01*
X65174761Y-73040952D02*
X65222380Y-73136190D01*
X65222380Y-73374285D01*
X65174761Y-73469523D01*
X65079523Y-73517142D01*
X64984285Y-73517142D01*
X64889047Y-73469523D01*
X64841428Y-73374285D01*
X64841428Y-73136190D01*
X64793809Y-73040952D01*
X65222380Y-72136190D02*
X64222380Y-72136190D01*
X65174761Y-72136190D02*
X65222380Y-72231428D01*
X65222380Y-72421904D01*
X65174761Y-72517142D01*
X65127142Y-72564761D01*
X65031904Y-72612380D01*
X64746190Y-72612380D01*
X64650952Y-72564761D01*
X64603333Y-72517142D01*
X64555714Y-72421904D01*
X64555714Y-72231428D01*
X64603333Y-72136190D01*
%TO.C,TP4*%
X183135638Y-96143771D02*
X183278495Y-96191390D01*
X183326114Y-96239009D01*
X183373733Y-96334247D01*
X183373733Y-96477104D01*
X183326114Y-96572342D01*
X183278495Y-96619961D01*
X183183257Y-96667580D01*
X182802304Y-96667580D01*
X182802304Y-95667580D01*
X183135638Y-95667580D01*
X183230876Y-95715200D01*
X183278495Y-95762819D01*
X183326114Y-95858057D01*
X183326114Y-95953295D01*
X183278495Y-96048533D01*
X183230876Y-96096152D01*
X183135638Y-96143771D01*
X182802304Y-96143771D01*
X184230876Y-96000914D02*
X184230876Y-96667580D01*
X183992780Y-95619961D02*
X183754685Y-96334247D01*
X184373733Y-96334247D01*
%TO.C,TP3*%
X183237238Y-91012971D02*
X183380095Y-91060590D01*
X183427714Y-91108209D01*
X183475333Y-91203447D01*
X183475333Y-91346304D01*
X183427714Y-91441542D01*
X183380095Y-91489161D01*
X183284857Y-91536780D01*
X182903904Y-91536780D01*
X182903904Y-90536780D01*
X183237238Y-90536780D01*
X183332476Y-90584400D01*
X183380095Y-90632019D01*
X183427714Y-90727257D01*
X183427714Y-90822495D01*
X183380095Y-90917733D01*
X183332476Y-90965352D01*
X183237238Y-91012971D01*
X182903904Y-91012971D01*
X183808666Y-90536780D02*
X184427714Y-90536780D01*
X184094380Y-90917733D01*
X184237238Y-90917733D01*
X184332476Y-90965352D01*
X184380095Y-91012971D01*
X184427714Y-91108209D01*
X184427714Y-91346304D01*
X184380095Y-91441542D01*
X184332476Y-91489161D01*
X184237238Y-91536780D01*
X183951523Y-91536780D01*
X183856285Y-91489161D01*
X183808666Y-91441542D01*
%TO.C,TP2*%
X183389638Y-86186971D02*
X183532495Y-86234590D01*
X183580114Y-86282209D01*
X183627733Y-86377447D01*
X183627733Y-86520304D01*
X183580114Y-86615542D01*
X183532495Y-86663161D01*
X183437257Y-86710780D01*
X183056304Y-86710780D01*
X183056304Y-85710780D01*
X183389638Y-85710780D01*
X183484876Y-85758400D01*
X183532495Y-85806019D01*
X183580114Y-85901257D01*
X183580114Y-85996495D01*
X183532495Y-86091733D01*
X183484876Y-86139352D01*
X183389638Y-86186971D01*
X183056304Y-86186971D01*
X184008685Y-85806019D02*
X184056304Y-85758400D01*
X184151542Y-85710780D01*
X184389638Y-85710780D01*
X184484876Y-85758400D01*
X184532495Y-85806019D01*
X184580114Y-85901257D01*
X184580114Y-85996495D01*
X184532495Y-86139352D01*
X183961066Y-86710780D01*
X184580114Y-86710780D01*
%TO.C,TP1*%
X183542038Y-80954571D02*
X183684895Y-81002190D01*
X183732514Y-81049809D01*
X183780133Y-81145047D01*
X183780133Y-81287904D01*
X183732514Y-81383142D01*
X183684895Y-81430761D01*
X183589657Y-81478380D01*
X183208704Y-81478380D01*
X183208704Y-80478380D01*
X183542038Y-80478380D01*
X183637276Y-80526000D01*
X183684895Y-80573619D01*
X183732514Y-80668857D01*
X183732514Y-80764095D01*
X183684895Y-80859333D01*
X183637276Y-80906952D01*
X183542038Y-80954571D01*
X183208704Y-80954571D01*
X184732514Y-81478380D02*
X184161085Y-81478380D01*
X184446800Y-81478380D02*
X184446800Y-80478380D01*
X184351561Y-80621238D01*
X184256323Y-80716476D01*
X184161085Y-80764095D01*
%TO.C,TP7*%
X216962076Y-114555542D02*
X216914457Y-114603161D01*
X216771600Y-114650780D01*
X216676361Y-114650780D01*
X216533504Y-114603161D01*
X216438266Y-114507923D01*
X216390647Y-114412685D01*
X216343028Y-114222209D01*
X216343028Y-114079352D01*
X216390647Y-113888876D01*
X216438266Y-113793638D01*
X216533504Y-113698400D01*
X216676361Y-113650780D01*
X216771600Y-113650780D01*
X216914457Y-113698400D01*
X216962076Y-113746019D01*
X217390647Y-114269828D02*
X218152552Y-114269828D01*
%TO.C,TP8*%
X208973847Y-114752380D02*
X208973847Y-113752380D01*
X209354800Y-113752380D01*
X209450038Y-113800000D01*
X209497657Y-113847619D01*
X209545276Y-113942857D01*
X209545276Y-114085714D01*
X209497657Y-114180952D01*
X209450038Y-114228571D01*
X209354800Y-114276190D01*
X208973847Y-114276190D01*
X209973847Y-114371428D02*
X210735752Y-114371428D01*
%TO.C,TP9*%
X217368476Y-134164342D02*
X217320857Y-134211961D01*
X217178000Y-134259580D01*
X217082761Y-134259580D01*
X216939904Y-134211961D01*
X216844666Y-134116723D01*
X216797047Y-134021485D01*
X216749428Y-133831009D01*
X216749428Y-133688152D01*
X216797047Y-133497676D01*
X216844666Y-133402438D01*
X216939904Y-133307200D01*
X217082761Y-133259580D01*
X217178000Y-133259580D01*
X217320857Y-133307200D01*
X217368476Y-133354819D01*
X217797047Y-133878628D02*
X218558952Y-133878628D01*
%TO.C,TP10*%
X212353733Y-127960380D02*
X211877542Y-127960380D01*
X211877542Y-126960380D01*
X212829923Y-127960380D02*
X212734685Y-127912761D01*
X212687066Y-127865142D01*
X212639447Y-127769904D01*
X212639447Y-127484190D01*
X212687066Y-127388952D01*
X212734685Y-127341333D01*
X212829923Y-127293714D01*
X212972780Y-127293714D01*
X213068019Y-127341333D01*
X213115638Y-127388952D01*
X213163257Y-127484190D01*
X213163257Y-127769904D01*
X213115638Y-127865142D01*
X213068019Y-127912761D01*
X212972780Y-127960380D01*
X212829923Y-127960380D01*
X214020400Y-127960380D02*
X214020400Y-127436571D01*
X213972780Y-127341333D01*
X213877542Y-127293714D01*
X213687066Y-127293714D01*
X213591828Y-127341333D01*
X214020400Y-127912761D02*
X213925161Y-127960380D01*
X213687066Y-127960380D01*
X213591828Y-127912761D01*
X213544209Y-127817523D01*
X213544209Y-127722285D01*
X213591828Y-127627047D01*
X213687066Y-127579428D01*
X213925161Y-127579428D01*
X214020400Y-127531809D01*
X214925161Y-127960380D02*
X214925161Y-126960380D01*
X214925161Y-127912761D02*
X214829923Y-127960380D01*
X214639447Y-127960380D01*
X214544209Y-127912761D01*
X214496590Y-127865142D01*
X214448971Y-127769904D01*
X214448971Y-127484190D01*
X214496590Y-127388952D01*
X214544209Y-127341333D01*
X214639447Y-127293714D01*
X214829923Y-127293714D01*
X214925161Y-127341333D01*
X215401352Y-127579428D02*
X216163257Y-127579428D01*
%TO.C,TP11*%
X209278647Y-134259580D02*
X209278647Y-133259580D01*
X209659600Y-133259580D01*
X209754838Y-133307200D01*
X209802457Y-133354819D01*
X209850076Y-133450057D01*
X209850076Y-133592914D01*
X209802457Y-133688152D01*
X209754838Y-133735771D01*
X209659600Y-133783390D01*
X209278647Y-133783390D01*
X210278647Y-133878628D02*
X211040552Y-133878628D01*
%TO.C,TP5*%
X183094380Y-101325371D02*
X183237238Y-101372990D01*
X183284857Y-101420609D01*
X183332476Y-101515847D01*
X183332476Y-101658704D01*
X183284857Y-101753942D01*
X183237238Y-101801561D01*
X183142000Y-101849180D01*
X182761047Y-101849180D01*
X182761047Y-100849180D01*
X183094380Y-100849180D01*
X183189619Y-100896800D01*
X183237238Y-100944419D01*
X183284857Y-101039657D01*
X183284857Y-101134895D01*
X183237238Y-101230133D01*
X183189619Y-101277752D01*
X183094380Y-101325371D01*
X182761047Y-101325371D01*
X183761047Y-101468228D02*
X184522952Y-101468228D01*
X184142000Y-101849180D02*
X184142000Y-101087276D01*
%TD*%
M02*
